<?xml version="1.0" encoding="utf-8"?>
<!-- Generator: Adobe Illustrator 27.0.0, SVG Export Plug-In . SVG Version: 6.00 Build 0)  -->
<svg version="1.1" id="Layer_1" xmlns="http://www.w3.org/2000/svg" xmlns:xlink="http://www.w3.org/1999/xlink" x="0px" y="0px"
	 viewBox="0 0 48 48" style="enable-background:new 0 0 48 48;" xml:space="preserve">
<style type="text/css">
	.st0{fill:#03A9F4;}
</style>
<path class="st0" d="M42,12.4c-1.3,0.6-2.7,1-4.2,1.2c1.5-0.9,2.7-2.4,3.3-4.1c-1.4,0.8-3,1.5-4.7,1.8C35,9.9,33,9,30.9,9
	c-4.1,0-7.4,3.3-7.4,7.3c0,0.6,0.1,1.1,0.2,1.7c-6.1-0.3-11.6-3.2-15.2-7.7c-0.6,1.1-1,2.3-1,3.7c0,2.5,1.3,4.8,3.3,6.1
	c-1.2,0-2.4-0.4-3.3-0.9c0,0,0,0.1,0,0.1c0,3.6,2.5,6.5,5.9,7.2c-0.6,0.2-1.3,0.3-1.9,0.3c-0.5,0-0.9-0.1-1.4-0.1
	c0.9,2.9,3.7,5,6.9,5.1c-2.5,2-5.7,3.1-9.2,3.1c-0.6,0-1.2,0-1.8-0.1c3.3,2.1,7.2,3.3,11.3,3.3c13.6,0,21-11.2,21-20.8
	c0-0.3,0-0.6,0-0.9C39.8,15.2,41,13.9,42,12.4"/>
</svg>
